<svg id="Group_328" data-name="Group 328" xmlns="http://www.w3.org/2000/svg" xmlns:xlink="http://www.w3.org/1999/xlink" width="268.876" height="159.383" viewBox="0 0 268.876 159.383">
  <defs>
    <clipPath id="clip-path">
      <rect id="Rectangle_243" data-name="Rectangle 243" width="268.876" height="159.383" fill="none"/>
    </clipPath>
  </defs>
  <g id="Group_326" data-name="Group 326" clip-path="url(#clip-path)">
    <path id="Path_566" data-name="Path 566" d="M92.785,52.221c0-4.027-3.6-7.291-8.035-7.291-.036-.009-.079-.016-.117-.024a7.281,7.281,0,0,0,.117-1.244c0-4.4-3.927-7.96-8.771-7.96a9.479,9.479,0,0,0-3.641.725A16.253,16.253,0,0,0,57.806,28.07c-8.5,0-15.455,5.991-16.026,13.574a9,9,0,1,0-2.845,17.771,3.781,3.781,0,0,0,.448.1c10.937,1.714,38.156,2.1,46.952-.143a7.512,7.512,0,0,0,6.451-7.148" transform="translate(-18.497 -16.611)" fill="#cfdaef"/>
    <path id="Path_567" data-name="Path 567" d="M61.529,66.732c0-4.027-3.6-7.291-8.034-7.291-.037-.009-.079-.016-.118-.024a7.24,7.24,0,0,0,.118-1.244c0-4.4-3.927-7.96-8.771-7.96a9.478,9.478,0,0,0-3.641.725A16.254,16.254,0,0,0,26.55,42.581c-8.5,0-15.455,5.991-16.026,13.574A9,9,0,1,0,7.678,73.926a3.781,3.781,0,0,0,.448.1c10.937,1.714,38.157,2.1,46.953-.143a7.512,7.512,0,0,0,6.45-7.148" transform="translate(0 -25.199)" fill="#ebeff8"/>
    <path id="Path_568" data-name="Path 568" d="M507.359,293.312c0-5.52-4.931-10-11.015-10-.051-.012-.109-.022-.161-.033a9.929,9.929,0,0,0,.161-1.705c0-6.027-5.384-10.912-12.025-10.912a13,13,0,0,0-4.991.993C475.8,264.889,468.206,260.2,459.4,260.2c-11.654,0-21.188,8.213-21.971,18.608a12.337,12.337,0,1,0-3.9,24.362,5.217,5.217,0,0,0,.614.134c14.994,2.35,52.31,2.88,64.368-.2,5.043-.915,8.843-4.953,8.843-9.8" transform="translate(-250.331 -153.985)" fill="#cfdaef"/>
    <path id="Path_569" data-name="Path 569" d="M464.509,313.207c0-5.52-4.931-10-11.015-10-.051-.012-.109-.022-.161-.033a9.929,9.929,0,0,0,.161-1.705c0-6.027-5.384-10.912-12.025-10.912a13,13,0,0,0-4.991.993c-3.528-6.771-11.122-11.457-19.924-11.457-11.654,0-21.188,8.213-21.971,18.608a12.337,12.337,0,1,0-3.9,24.362,5.234,5.234,0,0,0,.614.134c14.994,2.35,52.31,2.88,64.368-.2,5.043-.915,8.843-4.953,8.843-9.8" transform="translate(-224.973 -165.759)" fill="#ebeff8"/>
    <path id="Path_570" data-name="Path 570" d="M536.382,50.816c0-5.52-4.931-10-11.015-10-.051-.012-.109-.022-.161-.033a9.935,9.935,0,0,0,.161-1.705c0-6.027-5.384-10.912-12.025-10.912a13,13,0,0,0-4.991.993c-3.528-6.771-11.122-11.457-19.924-11.457-11.654,0-21.188,8.213-21.971,18.608a12.337,12.337,0,1,0-3.9,24.362,5.232,5.232,0,0,0,.614.134c14.994,2.35,52.31,2.88,64.368-.2,5.043-.915,8.843-4.953,8.843-9.8" transform="translate(-267.506 -10.479)" fill="#cfdaef"/>
    <path id="Path_571" data-name="Path 571" d="M493.532,70.71c0-5.52-4.931-10-11.015-10-.051-.012-.109-.022-.161-.033a9.929,9.929,0,0,0,.161-1.705c0-6.027-5.384-10.912-12.025-10.912a13,13,0,0,0-4.991.993C461.973,42.287,454.379,37.6,445.577,37.6c-11.654,0-21.188,8.213-21.971,18.608a12.337,12.337,0,1,0-3.9,24.362,5.232,5.232,0,0,0,.614.134c14.994,2.35,52.31,2.88,64.369-.2,5.043-.915,8.843-4.953,8.843-9.8" transform="translate(-242.148 -22.252)" fill="#ebeff8"/>
    <path id="Path_572" data-name="Path 572" d="M196.142,128.74,160.749,98.214,291.259,0" transform="translate(-95.13 0)" fill="#2e968e"/>
    <path id="Path_573" data-name="Path 573" d="M247.45,103.965,342.567,0l-22.12,103.965Z" transform="translate(-146.438 0.001)" fill="#58ada7"/>
    <path id="Path_574" data-name="Path 574" d="M247.45,254.684h29.862L247.45,279.459Z" transform="translate(-146.438 -150.719)" fill="#197e77"/>
    <path id="Path_575" data-name="Path 575" d="M41.535,103.965,220.709,0,97.721,103.965Z" transform="translate(-24.58 0.001)" fill="#58ada7"/>
  </g>
</svg>
