<svg id="Group_9" data-name="Group 9" xmlns="http://www.w3.org/2000/svg" xmlns:xlink="http://www.w3.org/1999/xlink" width="221.513" height="189.183" viewBox="0 0 221.513 189.183">
  <defs>
    <clipPath id="clip-path">
      <rect id="Rectangle_14" data-name="Rectangle 14" width="221.513" height="189.183" fill="none"/>
    </clipPath>
  </defs>
  <g id="Group_6" data-name="Group 6" clip-path="url(#clip-path)">
    <path id="Path_7" data-name="Path 7" d="M69.708,150.258c.158.468.295.944.477,1.4a23.842,23.842,0,0,1,.391,16.415,29.772,29.772,0,0,1-5.309,9.351c-2.826,3.627-5.468,7.4-8.136,11.148-1.163,1.635-2.252,3.33-3.259,5.065a2.242,2.242,0,0,1-2.261,1.068c-2.877.013-5.755.022-8.633.058-2.783.034-5.565.1-8.347.146-.366.006-.733-.04-1.1-.062a3.12,3.12,0,0,1,2.689-3.145,12.954,12.954,0,0,1,3.051-.16,1.582,1.582,0,0,0,1.853-1.237A96.168,96.168,0,0,0,45.351,174.4a21.334,21.334,0,0,0-1.477-12.081A52.424,52.424,0,0,1,40.4,151.289c-.343-1.971-.4-3.99-.672-5.976a4.092,4.092,0,0,0-.674-1.494c-.655-1.057-1.38-2.07-2.043-3.121q-2.04-3.234-4.042-6.493c-1.431-2.34-2.815-4.708-4.255-7.042-.7-1.138-1.471-2.236-2.237-3.333-1.142-1.635-2.209-3.337-3.488-4.859-2.3-2.732-4.588-5.538-7.663-7.426A42.449,42.449,0,0,0,9.4,108.869c-2.094-.876-4.238-1.661-5.891-3.3a11.775,11.775,0,0,1-1.181-1.643l.187-.241c1.376.127,2.753.246,4.129.384a14.574,14.574,0,0,0,2.282.244,4.052,4.052,0,0,0,1.359-.66c-.348-.377-.627-.932-1.056-1.1A47.661,47.661,0,0,0,4.6,101.04C1.1,100.091.471,99.172.024,94.966a5.406,5.406,0,0,1,.361-2.437,1.955,1.955,0,0,1,1.281-.942c1.115-.239,2.273-.267,3.41-.413,3.1-.4,6.2-.777,9.292-1.244a13.629,13.629,0,0,0,2.032-.809,5.424,5.424,0,0,1,1.994-.454c3.369.269,6.733.607,10.092.982,1.573.176,3.123.559,4.7.724,2.477.259,4.975.333,7.445.638a16,16,0,0,0,5.388-.592c.505-.108,1.293-.1,1.555.195s.106,1.047.066,1.592a2.1,2.1,0,0,1-.3.7,1.049,1.049,0,0,0,.464,1.527c3.251,2.208,6.436,4.517,9.734,6.652a11.068,11.068,0,0,0,3.852,1.564,13.839,13.839,0,0,1,5.69,2.582c2.393,1.747,4.88,3.366,7.311,5.063,2.722,1.9,5.415,3.841,8.14,5.734,1.888,1.312,3.819,2.563,5.715,3.863,2.081,1.426,4.144,2.877,6.215,4.317,1.91,1.329,3.817,2.664,5.731,3.988q5.08,3.517,10.169,7.022,6.756,4.641,13.528,9.258a10.809,10.809,0,0,0,1.135.55c-.859-5.935-1.59-11.594-2.937-17.473,1,.767,1.781,1.342,2.535,1.953,2.624,2.127,5.229,4.278,7.858,6.4q6.415,5.174,12.852,10.32c2.242,1.8,4.467,3.622,6.744,5.377a2.249,2.249,0,0,1,.85,2.672c-1.1,4.373-2.093,8.766-1.83,13.336a40.077,40.077,0,0,0,1.415,8.868c.93,3.222,1.874,6.443,2.675,9.7.537,2.183.813,4.439-.237,6.578a4.029,4.029,0,0,1-3.852,2.391q-5.758-.017-11.515-.078c-4.765-.049-9.529-.127-14.295-.166-.716-.006-.859-.34-.833-.956a5.331,5.331,0,0,1,5.281-5.177,17.4,17.4,0,0,1,2.4.029c1.563.114,2.468-.907,1.977-2.408-.783-2.39-1.633-4.759-2.5-7.122-1-2.729-1.959-5.474-3.078-8.154a82.24,82.24,0,0,0-3.736-8.066,14.13,14.13,0,0,0-5.825-6.056,7.59,7.59,0,0,0-5.317-.362c-3.459.752-6.9,1.582-10.36,2.34-2.465.54-4.927,1.145-7.423,1.486-3.187.436-6.4.72-9.614.918A21.066,21.066,0,0,1,75.431,159.1a3.367,3.367,0,0,1-1.279-1.675c-.612-1.435-.976-2.98-1.644-4.384a14.66,14.66,0,0,0-1.913-2.61c-.137-.174-.418-.233-.633-.345l-.254.169" transform="translate(0 -49.616)" fill="#b43036"/>
    <path id="Path_8" data-name="Path 8" d="M321.5,0a3.748,3.748,0,0,1-1.95,4.384,23.667,23.667,0,0,1-7.639,2.674c-3.842.781-7.658,1.715-11.443,2.74a3.413,3.413,0,0,0-2.452,4.568,3.5,3.5,0,0,0,.347.538c1.334-1.6,2.946-.778,4.417-.546,3.88.613,7.74,1.352,11.6,2.062a3.825,3.825,0,0,1,2.782,1.677,2.016,2.016,0,0,0,1.263.739q8.174,1.4,16.364,2.7c.635.1.822.361.667.963-.853,3.318-1.835,6.58-3.907,9.392a7.278,7.278,0,0,1-3.678,2.781,56.148,56.148,0,0,0-11.711,4.946,32.308,32.308,0,0,0-7.667,5.857,64.94,64.94,0,0,0-5.426,6.54,42.8,42.8,0,0,0-5.629,12.736c-1.487,5.22-2.937,10.451-4.45,15.663a44.057,44.057,0,0,1-7.5,15.091c-1.2,1.532-2.572,2.929-3.864,4.388-.42.475-.812.47-1.31.056-4.076-3.394-8.171-6.764-12.252-10.152q-5.719-4.748-11.42-9.517c-2.918-2.44-5.821-4.9-8.734-7.343q-8.186-6.87-16.379-13.734-1.91-1.6-3.838-3.178a4.616,4.616,0,0,0-.617-.364l-.266.115c.2,1.17.379,2.345.611,3.509q1.567,7.849,3.164,15.692c.165.814.4,1.614.55,2.429a2.017,2.017,0,0,1-.137.709,2.119,2.119,0,0,1-.672-.181Q219.837,70.676,209.36,63.4c-1.68-1.165-3.363-2.325-5.032-3.505-.835-.591-.8-.74-.071-1.44,2.066-1.988,4.087-4.023,6.16-6,.919-.879,2-1.594,2.861-2.523,1.311-1.422,2.481-2.973,3.73-4.453,1.688-2,3.418-3.963,5.085-5.98a18.3,18.3,0,0,1,6.788-4.882,21.77,21.77,0,0,1,9.979-1.946,35.091,35.091,0,0,1,9.629,1.5,2.816,2.816,0,0,0,2.647-.357c1.2-.844,2.438-1.645,3.708-2.379,1.987-1.147,3.953-2.357,6.037-3.3,4.736-2.141,9.5-4.222,14.325-6.156,3.133-1.256,6.383-2.223,9.59-3.292a12.138,12.138,0,0,1,1.962-.436,1.312,1.312,0,0,0,1.168-1.4c.1-1.432.074-2.883.3-4.293A19.331,19.331,0,0,1,289.313,8.8a2.634,2.634,0,0,1,1.145-1.1,20,20,0,0,1,9.328-3.227c2.615-.107,5.239.024,7.854-.082a33.981,33.981,0,0,0,8.922-1.042A8.21,8.21,0,0,0,320.726.587a5.559,5.559,0,0,1,.518-.556c.035-.034.12-.017.255-.031" transform="translate(-113.998)" fill="#2e968e"/>
    <path id="Path_9" data-name="Path 9" d="M241.139,284.708q-7.957,0-15.914,0c-.383,0-.767.028-1.15.044-1.215.054-1.44-.191-1.256-1.367a3.338,3.338,0,0,1,3.107-2.792,35.251,35.251,0,0,1,3.545-.123,1.98,1.98,0,0,0,1.924-1.155,16.627,16.627,0,0,0,1.948-11.667,59.768,59.768,0,0,0-2.7-8.046c-.743-2-1.652-3.937-2.473-5.909-.213-.51-.369-1.043-.551-1.566.548-.148,1.091-.318,1.645-.44,3.206-.708,6.411-1.422,9.624-2.1,2.391-.5,4.418-.073,5.806,2.209,1.262,2.074,2.646,4.074,3.97,6.11a5.16,5.16,0,0,1,.7,3.5c-.267,2.382-.572,4.759-.871,7.137-.421,3.357-.8,6.722-1.3,10.068a11.864,11.864,0,0,1-2.018,5.323c-.786,1.079-2.029.924-3.169.974a6.835,6.835,0,0,1-.86-.066c0-.047,0-.093,0-.14" transform="translate(-124.662 -139.569)" fill="#b43036"/>
    <path id="Path_10" data-name="Path 10" d="M183.587,288.722q-8.817,0-17.635,0c-1.184,0-1.216-.031-.864-1.1a4.589,4.589,0,0,1,4.032-3.078,19.515,19.515,0,0,1,3.346-.11c1.17.015,1.3-.065.949-1.148a39.358,39.358,0,0,0-3.622-8.743c-1.421-2.309-2.844-4.62-4.375-6.856a2.9,2.9,0,0,1-.269-2.841c.716-2.276,1.332-4.591,1.839-6.922.3-1.386.221-1.383,1.611-.909a29.118,29.118,0,0,0,9,1.651c1.113.016,2.23-.037,3.342-.107a1.23,1.23,0,0,1,1.421.844c.93,2.477,1.888,4.944,2.82,7.42a46.022,46.022,0,0,1,2.831,12.567,86.44,86.44,0,0,1-.061,8.9c0,.17-.464.46-.721.471-1.212.05-2.428.022-3.642.022,0-.02,0-.04,0-.06" transform="translate(-92.277 -143.669)" fill="#b43036"/>
    <path id="Path_11" data-name="Path 11" d="M398.851,189.019c.479.586.837.98,1.145,1.41,1.767,2.465,4.389,3.872,6.819,5.51a21.459,21.459,0,0,1,5.853,6.122c.987,1.492,1.933,3.012,2.915,4.508.789,1.2.8,1.566-.125,2.611-3.164,3.556-6.279,7.159-9.538,10.627a34.3,34.3,0,0,0-5.586,8.539c-.367.744-.777,1.469-1.194,2.187-.329.567-.651.689-1.137.063q-3.586-4.615-7.246-9.174c-.63-.782-.324-1.341.214-1.924,1.388-1.5,2.785-3,4.171-4.5,1.3-1.411,2.578-2.838,3.879-4.245.631-.683.274-1.116-.31-1.556q-3.368-2.536-6.718-5.1c-.244-.185-.459-.408-.759-.677.255-.2.4-.392.584-.449,1.944-.594,2.9-2.1,3.566-3.859q1.4-3.712,2.741-7.45c.282-.79.451-1.621.728-2.642" transform="translate(-218.478 -105.779)" fill="#2e968e"/>
    <path id="Path_12" data-name="Path 12" d="M440.917,27.833c1.706-.427,3.426-.805,5.113-1.3,1.669-.485,3.3-1.083,5.008-1.65a1.41,1.41,0,0,1-.258,1.69,5.044,5.044,0,0,1-4.077,2c-1.924-.025-3.844-.247-5.766-.384-.007-.12-.014-.24-.02-.36" transform="translate(-246.746 -13.927)" fill="#2e968e"/>
    <rect id="Rectangle_10" data-name="Rectangle 10" width="214.936" height="24.508" transform="translate(3.288 153.378)" fill="#2e968e"/>
    <path id="Path_13" data-name="Path 13" d="M28.381,361.435h3.012v10.75h5.276v2.52H28.381Z" transform="translate(-15.882 -202.266)" fill="#fff"/>
    <path id="Path_14" data-name="Path 14" d="M60.011,369.093H55.128v3.15h5.454V374.7H52.116v-13.27h8.191V363.9H55.128v2.756h4.883Z" transform="translate(-29.165 -202.266)" fill="#fff"/>
    <path id="Path_15" data-name="Path 15" d="M78.387,363.955H74.824v-2.52h10.2v2.52H81.4V374.7H78.387Z" transform="translate(-41.873 -202.266)" fill="#fff"/>
    <path id="Path_16" data-name="Path 16" d="M105.638,360.943a26.136,26.136,0,0,1-2.363,5.336l-1.812.158a29.642,29.642,0,0,0,1.359-5.316Z" transform="translate(-56.781 -201.991)" fill="#fff"/>
    <path id="Path_17" data-name="Path 17" d="M114.456,371.339a7.658,7.658,0,0,0,3.328.827c1.378,0,2.106-.571,2.106-1.437,0-.827-.63-1.3-2.225-1.87-2.205-.768-3.642-1.988-3.642-3.918,0-2.264,1.89-4,5.021-4a8.128,8.128,0,0,1,3.386.669l-.669,2.422a6.31,6.31,0,0,0-2.776-.63c-1.3,0-1.929.591-1.929,1.28,0,.847.748,1.221,2.461,1.87,2.343.867,3.446,2.087,3.446,3.958,0,2.225-1.713,4.115-5.355,4.115a8.69,8.69,0,0,1-3.76-.807Z" transform="translate(-63.71 -201.991)" fill="#fff"/>
    <path id="Path_18" data-name="Path 18" d="M149.412,371.339a7.656,7.656,0,0,0,3.327.827c1.378,0,2.107-.571,2.107-1.437,0-.827-.63-1.3-2.225-1.87-2.205-.768-3.642-1.988-3.642-3.918,0-2.264,1.89-4,5.02-4a8.129,8.129,0,0,1,3.387.669l-.669,2.422a6.31,6.31,0,0,0-2.776-.63c-1.3,0-1.929.591-1.929,1.28,0,.847.748,1.221,2.461,1.87,2.343.867,3.446,2.087,3.446,3.958,0,2.225-1.713,4.115-5.355,4.115a8.69,8.69,0,0,1-3.76-.807Z" transform="translate(-83.273 -201.991)" fill="#fff"/>
    <path id="Path_19" data-name="Path 19" d="M176.281,363.955h-3.564v-2.52h10.2v2.52h-3.622V374.7h-3.013Z" transform="translate(-96.656 -202.266)" fill="#fff"/>
    <path id="Path_20" data-name="Path 20" d="M199.034,371.3l-.945,3.406h-3.111l4.055-13.27h3.938l4.115,13.27h-3.229l-1.024-3.406Zm3.367-2.245-.827-2.816c-.236-.787-.473-1.772-.669-2.559h-.039c-.2.787-.394,1.792-.61,2.559l-.788,2.816Z" transform="translate(-109.114 -202.266)" fill="#fff"/>
    <path id="Path_21" data-name="Path 21" d="M227.387,361.487a26.411,26.411,0,0,1,4-.275,6.769,6.769,0,0,1,4.292,1.043,3.369,3.369,0,0,1,1.221,2.776,3.523,3.523,0,0,1-2.343,3.268v.059a3.345,3.345,0,0,1,1.772,2.481c.414,1.5.827,3.229,1.083,3.741h-3.071a16.607,16.607,0,0,1-.925-3.091c-.354-1.654-.926-2.106-2.146-2.126h-.905v5.218h-2.973Zm2.973,5.71h1.181c1.5,0,2.382-.748,2.382-1.91,0-1.22-.827-1.831-2.2-1.85a7.455,7.455,0,0,0-1.358.1Z" transform="translate(-127.25 -202.141)" fill="#fff"/>
    <path id="Path_22" data-name="Path 22" d="M256.072,363.955h-3.564v-2.52h10.2v2.52h-3.622V374.7h-3.013Z" transform="translate(-141.309 -202.266)" fill="#fff"/>
    <path id="Path_23" data-name="Path 23" d="M289.642,363.955h-3.564v-2.52h10.2v2.52h-3.622V374.7h-3.013Z" transform="translate(-160.095 -202.266)" fill="#fff"/>
    <path id="Path_24" data-name="Path 24" d="M313.749,361.487a26.411,26.411,0,0,1,4-.275,6.77,6.77,0,0,1,4.292,1.043,3.369,3.369,0,0,1,1.221,2.776,3.523,3.523,0,0,1-2.343,3.268v.059a3.345,3.345,0,0,1,1.772,2.481c.414,1.5.827,3.229,1.083,3.741H320.7a16.615,16.615,0,0,1-.925-3.091c-.355-1.654-.926-2.106-2.146-2.126h-.905v5.218h-2.973Zm2.973,5.71H317.9c1.5,0,2.382-.748,2.382-1.91,0-1.22-.827-1.831-2.205-1.85a7.456,7.456,0,0,0-1.358.1Z" transform="translate(-175.58 -202.141)" fill="#fff"/>
    <path id="Path_25" data-name="Path 25" d="M343.418,371.3l-.945,3.406h-3.111l4.056-13.27h3.938l4.115,13.27h-3.229l-1.024-3.406Zm3.367-2.245-.827-2.816c-.236-.787-.473-1.772-.669-2.559h-.039c-.2.787-.394,1.792-.61,2.559l-.788,2.816Z" transform="translate(-189.914 -202.266)" fill="#fff"/>
    <path id="Path_26" data-name="Path 26" d="M371.77,361.487a26.81,26.81,0,0,1,4.056-.275c2.52,0,4.154.453,5.434,1.418a5.87,5.87,0,0,1,2.245,5,6.731,6.731,0,0,1-2.2,5.375,9.525,9.525,0,0,1-6.123,1.713,26.047,26.047,0,0,1-3.406-.2Zm3.012,10.829a5.493,5.493,0,0,0,1.044.059c2.717.019,4.489-1.477,4.489-4.647a3.806,3.806,0,0,0-4.174-4.213,6.213,6.213,0,0,0-1.359.118Z" transform="translate(-208.05 -202.141)" fill="#fff"/>
    <rect id="Rectangle_11" data-name="Rectangle 11" width="3.012" height="13.27" transform="translate(177.815 159.168)" fill="#fff"/>
    <path id="Path_27" data-name="Path 27" d="M417.409,374.7v-13.27h3.5l2.756,4.863a38.5,38.5,0,0,1,2.166,4.548h.059a49.149,49.149,0,0,1-.256-5.533v-3.879h2.756V374.7h-3.15l-2.836-5.119a49.223,49.223,0,0,1-2.3-4.686l-.059.02c.079,1.752.118,3.623.118,5.788v4Z" transform="translate(-233.59 -202.266)" fill="#fff"/>
    <path id="Path_28" data-name="Path 28" d="M459.454,373.92a14.855,14.855,0,0,1-4.43.748,7.4,7.4,0,0,1-5.395-1.792,6.422,6.422,0,0,1-1.871-4.824c.02-4.41,3.229-6.931,7.58-6.931a9.136,9.136,0,0,1,3.682.65l-.63,2.4a7.355,7.355,0,0,0-3.091-.571c-2.5,0-4.391,1.418-4.391,4.292a4.348,4.348,0,0,0,5.651,4.155v-2.777h-2.048V366.93h4.942Z" transform="translate(-250.574 -202.091)" fill="#fff"/>
    <path id="Path_29" data-name="Path 29" d="M54.71,419.665H52.6v1.361h2.357v1.064H51.3v-5.734h3.539v1.064H52.6v1.191h2.11Z" transform="translate(-28.708 -233.001)" fill="#080807"/>
    <path id="Path_30" data-name="Path 30" d="M66.024,422.089l-.519-1.038c-.212-.4-.349-.7-.51-1.03h-.017c-.119.332-.264.629-.443,1.03l-.476,1.038h-1.48l1.659-2.9-1.6-2.833h1.488l.5,1.047c.17.349.3.629.434.953h.017c.137-.366.247-.621.392-.953l.485-1.047h1.48l-1.617,2.8,1.7,2.935Z" transform="translate(-35.02 -233)" fill="#080807"/>
    <path id="Path_31" data-name="Path 31" d="M77.316,416.378a10.645,10.645,0,0,1,1.752-.119,2.751,2.751,0,0,1,1.752.459,1.677,1.677,0,0,1,.613,1.327,1.834,1.834,0,0,1-.528,1.361,2.659,2.659,0,0,1-1.863.6,3.3,3.3,0,0,1-.442-.026v2.05H77.316Zm1.285,2.6a1.98,1.98,0,0,0,.433.034c.69,0,1.115-.349,1.115-.936,0-.528-.366-.842-1.012-.842a2.232,2.232,0,0,0-.536.051Z" transform="translate(-43.268 -232.947)" fill="#080807"/>
    <path id="Path_32" data-name="Path 32" d="M93.882,419.665h-2.11v1.361h2.357v1.064H90.471v-5.734h3.539v1.064H91.772v1.191h2.11Z" transform="translate(-50.629 -233.001)" fill="#080807"/>
    <path id="Path_33" data-name="Path 33" d="M102.717,416.378a11.431,11.431,0,0,1,1.727-.118,2.926,2.926,0,0,1,1.854.451,1.456,1.456,0,0,1,.528,1.2,1.522,1.522,0,0,1-1.012,1.412v.026a1.446,1.446,0,0,1,.766,1.072c.179.647.357,1.4.468,1.616H105.72a7.2,7.2,0,0,1-.4-1.336c-.153-.714-.4-.91-.927-.919H104v2.254h-1.285ZM104,418.846h.51c.647,0,1.03-.323,1.03-.825,0-.527-.357-.791-.953-.8a3.232,3.232,0,0,0-.587.042Z" transform="translate(-57.482 -232.947)" fill="#080807"/>
    <path id="Path_34" data-name="Path 34" d="M116.656,417.444h-1.54v-1.089h4.406v1.089h-1.565v4.645h-1.3Z" transform="translate(-64.421 -233.001)" fill="#080807"/>
    <path id="Path_35" data-name="Path 35" d="M132.972,419.044a2.734,2.734,0,0,1-2.816,3.021,2.674,2.674,0,0,1-2.7-2.918,2.776,2.776,0,0,1,2.791-3,2.672,2.672,0,0,1,2.722,2.9m-4.143.077c0,1.123.528,1.914,1.4,1.914s1.378-.834,1.378-1.948c0-1.029-.494-1.914-1.387-1.914-.876,0-1.386.834-1.386,1.948" transform="translate(-71.329 -232.882)" fill="#080807"/>
    <path id="Path_36" data-name="Path 36" d="M153.083,419.665h-2.11v1.361h2.357v1.064h-3.658v-5.734h3.539v1.064h-2.238v1.191h2.11Z" transform="translate(-83.759 -233.001)" fill="#080807"/>
    <path id="Path_37" data-name="Path 37" d="M161.918,422.089v-5.734h1.514l1.191,2.1a16.8,16.8,0,0,1,.936,1.965h.025a21.3,21.3,0,0,1-.111-2.391v-1.676h1.191v5.734H165.3l-1.225-2.212a21.331,21.331,0,0,1-1-2.025l-.026.008c.034.757.051,1.565.051,2.5v1.727Z" transform="translate(-90.613 -233)" fill="#080807"/>
    <path id="Path_38" data-name="Path 38" d="M186.886,421.81a3.69,3.69,0,0,1-1.472.247,2.727,2.727,0,0,1-3-2.867,2.923,2.923,0,0,1,3.131-3.046,3.377,3.377,0,0,1,1.412.255l-.264,1.03a2.8,2.8,0,0,0-1.089-.213,1.885,1.885,0,0,0,.009,3.769,3.225,3.225,0,0,0,1.08-.187Z" transform="translate(-102.081 -232.882)" fill="#080807"/>
    <path id="Path_39" data-name="Path 39" d="M196.434,416.378a11.431,11.431,0,0,1,1.727-.118,2.926,2.926,0,0,1,1.854.451,1.456,1.456,0,0,1,.528,1.2,1.522,1.522,0,0,1-1.012,1.412v.026a1.446,1.446,0,0,1,.766,1.072c.179.647.357,1.4.468,1.616h-1.327a7.2,7.2,0,0,1-.4-1.336c-.153-.714-.4-.91-.927-.919h-.391v2.254h-1.285Zm1.285,2.467h.51c.647,0,1.03-.323,1.03-.825,0-.527-.357-.791-.953-.8a3.232,3.232,0,0,0-.587.042Z" transform="translate(-109.928 -232.947)" fill="#080807"/>
    <path id="Path_40" data-name="Path 40" d="M213.231,419.665h-2.11v1.361h2.357v1.064H209.82v-5.734h3.539v1.064h-2.238v1.191h2.11Z" transform="translate(-117.42 -233.001)" fill="#080807"/>
    <path id="Path_41" data-name="Path 41" d="M222.871,420.617l-.408,1.472h-1.344l1.752-5.734h1.7l1.778,5.734h-1.4l-.443-1.472Zm1.455-.97-.358-1.217c-.1-.34-.2-.765-.289-1.106h-.017c-.085.34-.17.774-.263,1.106l-.341,1.217Z" transform="translate(-123.743 -233)" fill="#080807"/>
    <path id="Path_42" data-name="Path 42" d="M236.669,416.378a11.431,11.431,0,0,1,1.727-.118,2.926,2.926,0,0,1,1.854.451,1.456,1.456,0,0,1,.528,1.2,1.522,1.522,0,0,1-1.012,1.412v.026a1.446,1.446,0,0,1,.766,1.072c.179.647.357,1.4.468,1.616h-1.327a7.194,7.194,0,0,1-.4-1.336c-.153-.714-.4-.91-.927-.919h-.391v2.254h-1.285Zm1.285,2.467h.51c.647,0,1.03-.323,1.03-.825,0-.527-.357-.791-.953-.8a3.232,3.232,0,0,0-.587.042Z" transform="translate(-132.445 -232.947)" fill="#080807"/>
    <rect id="Rectangle_12" data-name="Rectangle 12" width="1.301" height="5.734" transform="translate(112.688 183.354)" fill="#080807"/>
    <path id="Path_43" data-name="Path 43" d="M263.324,422.089v-5.734h1.514l1.191,2.1a16.816,16.816,0,0,1,.936,1.965h.025a21.308,21.308,0,0,1-.11-2.391v-1.676h1.191v5.734h-1.362l-1.225-2.212a21.316,21.316,0,0,1-1-2.025l-.026.008c.034.757.051,1.565.051,2.5v1.727Z" transform="translate(-147.361 -233)" fill="#080807"/>
    <path id="Path_44" data-name="Path 44" d="M283.036,421.75a6.415,6.415,0,0,1-1.914.323,3.2,3.2,0,0,1-2.331-.774,2.777,2.777,0,0,1-.809-2.084,2.96,2.96,0,0,1,3.276-2.995,3.939,3.939,0,0,1,1.591.281l-.272,1.037a3.185,3.185,0,0,0-1.335-.247,1.868,1.868,0,1,0,.544,3.65v-1.2H280.9V418.73h2.135Z" transform="translate(-155.565 -232.925)" fill="#080807"/>
    <path id="Path_45" data-name="Path 45" d="M293.687,416.378a11.431,11.431,0,0,1,1.727-.118,2.926,2.926,0,0,1,1.854.451,1.456,1.456,0,0,1,.528,1.2,1.522,1.522,0,0,1-1.012,1.412v.026a1.446,1.446,0,0,1,.766,1.072c.179.647.357,1.4.468,1.616H296.69a7.205,7.205,0,0,1-.4-1.336c-.153-.714-.4-.91-.927-.919h-.391v2.254h-1.285Zm1.285,2.467h.51c.647,0,1.03-.323,1.03-.825,0-.527-.357-.791-.953-.8a3.232,3.232,0,0,0-.587.042Z" transform="translate(-164.353 -232.947)" fill="#080807"/>
    <path id="Path_46" data-name="Path 46" d="M310.484,419.665h-2.11v1.361h2.357v1.064h-3.658v-5.734h3.539v1.064h-2.238v1.191h2.11Z" transform="translate(-171.844 -233.001)" fill="#080807"/>
    <path id="Path_47" data-name="Path 47" d="M319.08,420.635a3.307,3.307,0,0,0,1.438.358c.6,0,.91-.247.91-.621,0-.357-.272-.561-.961-.808-.953-.332-1.574-.859-1.574-1.693,0-.978.817-1.727,2.169-1.727a3.51,3.51,0,0,1,1.463.289l-.289,1.047a2.718,2.718,0,0,0-1.2-.273c-.561,0-.833.255-.833.553,0,.366.323.528,1.063.809,1.012.374,1.489.9,1.489,1.71,0,.961-.74,1.778-2.314,1.778a3.76,3.76,0,0,1-1.625-.349Z" transform="translate(-178.416 -232.882)" fill="#080807"/>
    <path id="Path_48" data-name="Path 48" d="M336.594,419.044a2.734,2.734,0,0,1-2.816,3.021,2.674,2.674,0,0,1-2.7-2.918,2.776,2.776,0,0,1,2.791-3,2.672,2.672,0,0,1,2.722,2.9m-4.143.077c0,1.123.528,1.914,1.4,1.914s1.378-.834,1.378-1.948c0-1.029-.493-1.914-1.387-1.914-.876,0-1.386.834-1.386,1.948" transform="translate(-185.279 -232.882)" fill="#080807"/>
    <path id="Path_49" data-name="Path 49" d="M347.222,420.635a3.308,3.308,0,0,0,1.438.358c.6,0,.91-.247.91-.621,0-.357-.272-.561-.961-.808-.953-.332-1.574-.859-1.574-1.693,0-.978.817-1.727,2.169-1.727a3.51,3.51,0,0,1,1.463.289l-.289,1.047a2.718,2.718,0,0,0-1.2-.273c-.561,0-.833.255-.833.553,0,.366.323.528,1.063.809,1.012.374,1.489.9,1.489,1.71,0,.961-.74,1.778-2.314,1.778a3.76,3.76,0,0,1-1.625-.349Z" transform="translate(-194.165 -232.882)" fill="#080807"/>
    <path id="Path_50" data-name="Path 50" d="M365.656,416.378a10.646,10.646,0,0,1,1.752-.119,2.751,2.751,0,0,1,1.752.459,1.676,1.676,0,0,1,.613,1.327,1.834,1.834,0,0,1-.528,1.361,2.659,2.659,0,0,1-1.863.6,3.3,3.3,0,0,1-.442-.026v2.05h-1.285Zm1.285,2.6a1.98,1.98,0,0,0,.433.034c.69,0,1.115-.349,1.115-.936,0-.528-.366-.842-1.012-.842a2.232,2.232,0,0,0-.536.051Z" transform="translate(-204.628 -232.947)" fill="#080807"/>
    <path id="Path_51" data-name="Path 51" d="M378.456,420.617l-.408,1.472H376.7l1.752-5.734h1.7l1.778,5.734h-1.4l-.443-1.472Zm1.455-.97-.358-1.217c-.1-.34-.2-.765-.289-1.106h-.017c-.085.34-.17.774-.263,1.106l-.341,1.217Z" transform="translate(-210.811 -233)" fill="#080807"/>
    <path id="Path_52" data-name="Path 52" d="M392.014,420.635a3.31,3.31,0,0,0,1.438.358c.595,0,.91-.247.91-.621,0-.357-.272-.561-.961-.808-.953-.332-1.574-.859-1.574-1.693,0-.978.817-1.727,2.17-1.727a3.509,3.509,0,0,1,1.463.289l-.289,1.047a2.718,2.718,0,0,0-1.2-.273c-.561,0-.833.255-.833.553,0,.366.323.528,1.063.809,1.012.374,1.489.9,1.489,1.71,0,.961-.74,1.778-2.314,1.778a3.76,3.76,0,0,1-1.625-.349Z" transform="translate(-219.231 -232.882)" fill="#080807"/>
    <rect id="Rectangle_13" data-name="Rectangle 13" width="1.301" height="5.734" transform="translate(178.185 183.354)" fill="#080807"/>
    <path id="Path_53" data-name="Path 53" d="M412.789,422.089l-1.838-5.734h1.421l.7,2.425c.2.681.374,1.336.51,2.05h.026c.145-.689.323-1.37.519-2.025l.732-2.45h1.378l-1.931,5.734Z" transform="translate(-229.976 -233)" fill="#080807"/>
    <path id="Path_54" data-name="Path 54" d="M431.028,419.044a2.734,2.734,0,0,1-2.816,3.021,2.674,2.674,0,0,1-2.7-2.918,2.776,2.776,0,0,1,2.791-3,2.672,2.672,0,0,1,2.722,2.9m-4.143.077c0,1.123.528,1.914,1.4,1.914s1.378-.834,1.378-1.948c0-1.029-.493-1.914-1.387-1.914-.876,0-1.386.834-1.386,1.948" transform="translate(-238.127 -232.882)" fill="#080807"/>
    <path id="Path_55" data-name="Path 55" d="M441.655,420.635a3.31,3.31,0,0,0,1.438.358c.595,0,.91-.247.91-.621,0-.357-.272-.561-.961-.808-.953-.332-1.574-.859-1.574-1.693,0-.978.817-1.727,2.17-1.727a3.509,3.509,0,0,1,1.463.289l-.289,1.047a2.718,2.718,0,0,0-1.2-.273c-.561,0-.833.255-.833.553,0,.366.323.528,1.063.809,1.012.374,1.489.9,1.489,1.71,0,.961-.74,1.778-2.314,1.778a3.76,3.76,0,0,1-1.625-.349Z" transform="translate(-247.011 -232.882)" fill="#080807"/>
  </g>
</svg>
